<svg xmlns="http://www.w3.org/2000/svg" xmlns:xlink="http://www.w3.org/1999/xlink" xmlns:inkscape="http://www.inkscape.org/namespaces/inkscape" version="1.1" width="612" height="792" viewBox="0 0 612 792">
<defs>
<clipPath id="clip_0">
<path transform="matrix(.24,0,0,.24,0,0)" d="M0 153.125H2550V3146.0938H0Z" clip-rule="evenodd"/>
</clipPath>
<clipPath id="clip_1">
<path transform="matrix(.24,0,0,.24,0,0)" d="M475 246.875H500V268.75H475Z" clip-rule="evenodd"/>
</clipPath>
<clipPath id="clip_2">
<path transform="matrix(.24,0,0,.24,0,0)" d="M0 153.125H2550V3146.0938H0Z" clip-rule="evenodd"/>
</clipPath>
<clipPath id="clip_3">
<path transform="matrix(.24,0,0,.24,0,0)" d="M809.375 250H834.375V271.875H809.375Z" clip-rule="evenodd"/>
</clipPath>
<clipPath id="clip_4">
<path transform="matrix(.24,0,0,.24,0,0)" d="M0 153.125H2550V3146.0938H0Z" clip-rule="evenodd"/>
</clipPath>
<clipPath id="clip_5">
<path transform="matrix(.24,0,0,.24,0,0)" d="M1237.5 250H1259.375V271.875H1237.5Z" clip-rule="evenodd"/>
</clipPath>
<clipPath id="clip_6">
<path transform="matrix(.24,0,0,.24,0,0)" d="M0 153.125H2550V3146.0938H0Z" clip-rule="evenodd"/>
</clipPath>
<clipPath id="clip_7">
<path transform="matrix(.24,0,0,.24,0,0)" d="M1478.125 250H1503.125V271.875H1478.125Z" clip-rule="evenodd"/>
</clipPath>
<clipPath id="clip_8">
<path transform="matrix(.24,0,0,.24,0,0)" d="M0 153.125H2550V3146.0938H0Z" clip-rule="evenodd"/>
</clipPath>
<clipPath id="clip_9">
<path transform="matrix(.24,0,0,.24,0,0)" d="M1743.75 250H1768.75V271.875H1743.75Z" clip-rule="evenodd"/>
</clipPath>
<clipPath id="clip_10">
<path transform="matrix(.24,0,0,.24,0,0)" d="M0 153.125H2550V3146.0938H0Z" clip-rule="evenodd"/>
</clipPath>
<clipPath id="clip_11">
<path transform="matrix(.24,0,0,.24,0,0)" d="M0 0H2550V3300H0Z" clip-rule="evenodd"/>
</clipPath>
</defs>
<g clip-path="url(#clip_0)">
<path transform="matrix(.75,0,0,.75,0,36.75)" d="M53 60H763V61H53Z" fill="#e5e7eb"/>
<text fill="#2e3d50" xml:space="preserve" transform="matrix(.75 0 0 .75 0 36.75)" font-size="18.69" font-family="Merriweather" font-weight="bold"><tspan y="20" x="345.375 357.72743 368.30455 377.10633 383.59089 393.28968 397.71864 410.015 420.59214 432.141 440.9428 451.22096 460.02278">Paris Cabrera</tspan></text>
</g>
<g clip-path="url(#clip_1)">
<path transform="matrix(.23876953,0,0,.23876953,114,59.25)" d="M12 1.1C7.6 1.1 4.1 4.6 4.1 9 4.1 14.4 11.2 22.3 11.5 22.7 11.8 23 12.3 23 12.6 22.7 12.900001 22.400002 20 14.4 20 9 19.9 4.6 16.4 1.0999999 12 1.0999999M12 13C9.8 13 8 11.2 8 9 8 6.8 9.8 5 12 5 14.2 5 16 6.8 16 9 16 11.2 14.2 13 12 13" fill="#2e3d50"/>
</g>
<g clip-path="url(#clip_2)">
<text fill="#2e3d50" xml:space="preserve" transform="matrix(.75 0 0 .75 0 36.75)" font-size="8.5" font-family="Merriweather"><tspan y="37" x="163.54688 168.79145 171.58798 176.64554 180.47058 183.22461 188.47768">Florida</tspan></text>
<text fill="#2e3d50" xml:space="preserve" transform="matrix(.75 0 0 .75 0 36.75)" font-size="8.5" font-family="Merriweather"><tspan y="37" x="193.21875">,</tspan></text>
<text fill="#2e3d50" xml:space="preserve" transform="matrix(.75 0 0 .75 0 36.75)" font-size="8.5" font-family="Merriweather"><tspan y="37" x="200.07813 206.3512 211.90177 214.65579 218.10683 222.69689 227.94995 229.96448 234.96254 238.41358 243.14813 246.59917 251.18923">United States</tspan></text>
</g>
<g clip-path="url(#clip_3)">
<path transform="matrix(.23876953,0,0,.23876953,194.25,60)" d="M20.016 8.016V6L12 11.016 3.984 6V8.016L12 12.985 20.016 8.016ZM20.016 3.9839998C20.547335 3.9839998 21.008336 4.187 21.399 4.593 21.789666 4.999 21.984999 5.4676668 21.985 5.999V17.999C21.985 18.530335 21.789668 18.999 21.399 19.405 21.008334 19.811 20.547333 20.014 20.016 20.014H3.9850002C3.4536668 20.014 2.992667 19.811 2.6020003 19.405 2.2113336 18.999 2.0160003 18.530335 2.0160003 17.999V5.9990007C2.0160003 5.467667 2.2113336 4.9990007 2.6020003 4.5930006 2.992667 4.1870005 3.4536668 3.9840003 3.9850002 3.9840005L20.016 3.9839998Z" fill="#2e3d50"/>
</g>
<g clip-path="url(#clip_4)">
<text fill="#2e3d50" xml:space="preserve" transform="matrix(.75 0 0 .75 0 36.75)" font-size="8.5" font-family="Merriweather"><tspan y="37" x="271.04689 276.35096 281.0855 284.91056 287.66459 291.8806 293.98014 298.3067 303.04127 308.14134 311.96638 316.55644 320.38148 325.11604 330.1651 333.80317 339.13273 348.26185 353.3364 361.7005 366.43507 369.1891 371.98564 374.08515 378.41169 383.46925">paris.cabrera218@gmail.com</tspan></text>
</g>
<g clip-path="url(#clip_5)">
<path transform="matrix(.23876953,0,0,.23876953,297,60)" d="M19.5 0H4.5C4.0857865-.00000004937811 3.732233 .14644656 3.4393399 .4393398 3.1464468 .73223307 3 1.0857864 3 1.5V22.5C2.9999998 22.914214 3.1464465 23.267765 3.4393397 23.560658 3.7322329 23.853552 4.0857865 23.999999 4.5 24H19.5C19.914214 23.999999 20.267765 23.853552 20.56066 23.560658 20.853554 23.267765 21 22.914214 21 22.5V1.5C21 1.0857864 20.853554 .73223307 20.56066 .43933983 20.267765 .14644659 19.914214 0 19.5 0M18 18H6V3H18V18Z" fill="#2e3d50"/>
</g>
<g clip-path="url(#clip_6)">
<text fill="#2e3d50" xml:space="preserve" transform="matrix(.75 0 0 .75 0 36.75)" font-size="8.5" font-family="Merriweather"><tspan y="37" x="407.48439 413.08595 418.4665 424.06806 429.3976 434.44667 439.40223 443.04029 448.36985 453.32539 458.37446 463.76353">646-251-5206</tspan></text>
</g>
<g clip-path="url(#clip_7)">
<path transform="matrix(.23876953,0,0,.23876953,354.75,60)" d="M21.75 0H2.25C1.6294773 .0019215734 1.099827 .2222713 .66104927 .6610492 .22227136 1.099827 .0019215981 1.6294773 0 2.25V21.75C.0019214614 22.370524 .22227115 22.900174 .6610491 23.338952 1.099827 23.777729 1.6294773 23.99808 2.25 24H21.75C22.370524 23.99808 22.900174 23.777729 23.338952 23.338952 23.777729 22.900174 23.99808 22.370524 24 21.75V2.25C23.99808 1.6294773 23.777729 1.099827 23.338952 .6610491 22.900174 .2222712 22.370524 .0019214776 21.75 0M9 19.5H6V9H9V19.5ZM7.5 7.5C6.67 7.5 6 6.83 6 6 6 5.17 6.67 4.5 7.5 4.5 8.33 4.5 9 5.17 9 6 9 6.83 8.33 7.5 7.5 7.5M19.5 19.5H16.5V13.5C16.5 12.67 15.83 12 15 12 14.17 12 13.5 12.67 13.5 13.5V19.5H10.5V9H13.5V10.861C14.119 10.013 15.066 9 16.125 9 17.991 9 19.5 10.6779999 19.5 12.75V19.5Z" fill="#2e3d50"/>
</g>
<g clip-path="url(#clip_8)">
<text fill="#2e3d50" xml:space="preserve" transform="matrix(.75 0 0 .75 0 36.75)" font-size="8.5" font-family="Merriweather"><tspan y="37" x="485.01564 487.76966 493.32023 496.98377 502.28785 507.0224 510.84745 513.60147 517.8175 523.1471 527.47366 532.2082 537.3082 541.1333 545.7234 549.54849">in/paris-cabrera</tspan></text>
</g>
<g clip-path="url(#clip_9)">
<path transform="matrix(.011192322,0,0,.011192322,418.5895,60)" d="M165.9 397.4C165.9 399.4 163.59999 401 160.7 401 157.4 401.3 155.09999 399.7 155.09999 397.4 155.09999 395.4 157.4 393.8 160.29999 393.8 163.29999 393.5 165.9 395.09999 165.9 397.4M134.79999 392.9C134.09999 394.9 136.09999 397.19999 139.09999 397.8 141.7 398.8 144.7 397.8 145.29999 395.8 145.89998 393.8 143.99999 391.5 140.99999 390.59999 138.39998 389.89997 135.49999 390.89997 134.79999 392.89997M178.99999 391.19996C176.09999 391.89997 174.09999 393.79997 174.39998 396.09996 174.69998 398.09996 177.29998 399.39994 180.29998 398.69996 183.19997 397.99995 185.19997 396.09996 184.89998 394.09996 184.59998 392.19996 181.89998 390.89994 178.99999 391.19996M244.8 8C106.1 8 0 113.3 0 252 0 362.9 69.8 457.8 169.5 491.2 182.3 493.5 186.8 485.6 186.8 479.1 186.8 472.9 186.5 438.7 186.5 417.7 186.5 417.7 116.5 432.7 101.8 387.90003 101.8 387.90003 90.4 358.80003 74 351.30003 74 351.30003 51.1 335.6 75.6 335.90003 75.6 335.90003 100.5 337.90003 114.2 361.7 136.09999 400.30003 172.79999 389.2 187.1 382.6 189.40001 366.6 195.90001 355.5 203.1 348.9 147.20001 342.69999 90.8 334.6 90.8 238.4 90.8 210.9 98.4 197.09999 114.4 179.5 111.8 173 103.3 146.2 117 111.6 137.9 105.1 186 138.6 186 138.6 206 133 227.5 130.1 248.8 130.1 270.1 130.1 291.6 133 311.6 138.6 311.6 138.6 359.7 105.00001 380.6 111.600009 394.30003 146.3 385.80003 173 383.2 179.5 399.2 197.2 409 211 409 238.4 409 334.9 350.1 342.59999 294.2 348.9 303.40003 356.8 311.2 371.8 311.2 395.3 311.2 429 310.90003 470.69999 310.90003 478.9 310.90003 485.4 315.50004 493.3 328.2 491 428.2 457.8 496 362.9 496 252 496 113.3 383.5 8 244.8 8M97.2 352.9C95.899997 353.9 96.2 356.19999 97.899997 358.1 99.49999 359.7 101.799999 360.4 103.09999 359.1 104.399997 358.1 104.09999 355.80003 102.399997 353.9 100.799999 352.3 98.49999 351.6 97.2 352.9M86.399997 344.8C85.7 346.09999 86.7 347.69999 88.7 348.69999 90.299999 349.69999 92.299999 349.4 93 347.99998 93.7 346.69999 92.7 345.09999 90.7 344.09999 88.7 343.49998 87.1 343.8 86.399997 344.8M118.799999 380.4C117.2 381.69999 117.799999 384.69999 120.1 386.6 122.4 388.9 125.299999 389.2 126.6 387.6 127.9 386.30003 127.299999 383.30003 125.299999 381.4 123.1 379.1 120.1 378.8 118.799999 380.4M107.399997 365.69999C105.799999 366.69999 105.799999 369.3 107.399997 371.59999 108.99999 373.89997 111.7 374.89997 112.99999 373.89997 114.59999 372.59999 114.59999 369.99998 112.99999 367.69996 111.59999 365.39997 108.99999 364.39997 107.399997 365.69996" fill="#2e3d50"/>
</g>
<g clip-path="url(#clip_10)">
<text fill="#2e3d50" xml:space="preserve" transform="matrix(.75 0 0 .75 0 36.75)" font-size="8.5" font-family="Merriweather"><tspan y="37" x="569.9375 575.0121 577.7661 581.21719 586.7592 592.0973 597.1974 599.2969 603.6234 608.68099 617.04507 620.7086 626.15719 631.7672 637.2838 642.0184 647.1184 650.9435 655.53359 659.35867">github.com/PVCabrera</tspan></text>
<path transform="matrix(.75,0,0,.75,0,36.75)" d="M53 93H763V94H53Z"/>
<path transform="matrix(.75,0,0,.75,0,36.75)" d="M53 167H763V168H53Z" fill="#e5e7eb"/>
<text xml:space="preserve" transform="matrix(.75 0 0 .75 0 36.75)" font-size="13.03" font-family="Merriweather" font-weight="bold"><tspan y="86" x="52.90625 60.75461 70.46417 75.81355 84.11745 92.42134">SKILLS</tspan></text>
<text fill="#2e3d68" xml:space="preserve" transform="matrix(.75 0 0 .75 0 36.75)" font-size="9.63" font-family="Merriweather"><tspan y="108" x="52.90625 58.84485 63.176088 68.90294 75.188037 79.095767 84.29324 90.57834 96.526569 99.84718 102.128299 110.059268 116.594608 125.95969 132.03304 137.64438 140.86875 143.14986 149.39646 155.05593 160.7154 166.06687 169.29123 171.57234 175.1817 180.5428 185.99053 191.35163 197.0111 201.9102 206.24144 209.35993 215.3659 219.27364 222.498 224.77912 230.94872 236.4542 240.36193 246.63739 252.36425 258.64936 261.87373 264.15486 270.6902 276.19569 282.20167 287.39915 293.0586 297.9577 302.28895 305.4074 311.4134 315.3211 318.54548 320.8266 327.4967 332.69419 338.0553 342.9544 346.86213 350.0865 352.3676 360.0387 365.23619 370.90528 374.813 377.77748 382.55146 385.77583 388.05696 394.5249 400.25178 405.97865 409.88636 414.66035 418.56806 422.8993 428.26039 434.26637 437.49073 439.77186 446.3072 451.66828 454.78675 457.95338 466.0191 469.13758 475.42268 481.3709 484.59529 486.8764 492.815 495.93348 501.67958 511.1505 516.5116 519.73599 522.0171 529.1203 535.93478 540.0831 547.18637 551.00747">Frontend: HTML5, CSS3, JavaScript, Python, TypeScript, React, Nextjs, Bootstrap, Tailwind, Figma, UX/UI </tspan></text>
<text fill="#2e3d68" xml:space="preserve" transform="matrix(.75 0 0 .75 0 36.75)" font-size="9.63" font-family="Merriweather"><tspan y="122" x="52.90625 59.37422 64.73532 69.63443 75.22653 80.42401 86.70911 92.65733 95.97795 98.25906 104.50566 111.666629 114.89099 117.172107 122.83157 129.80966 135.88301 139.10738 141.38849 150.75357 153.87206 158.77117 163.1024 168.82926 173.60324 179.3301 183.13196 187.03969 189.3208 194.98027 201.95836 208.03171 210.31282 215.97229 221.16977 225.501 230.94873 236.14621 240.47745 243.70182 245.98293 248.36029 256.03138 262.27796 268.8133 272.03767 274.3188 280.56538 286.50398 288.7851 295.03169 300.75856 305.08979 310.2873 313.51167 315.7928 319.40217 325.06166 331.982 339.65309 342.87745 345.15858 352.82966 358.55653 364.50477 369.70225 372.9266 375.2077 381.8778 387.9223 393.69728 399.20277 401.4839 407.21076 413.49586 415.77699 420.10823 425.4693 428.58778 431.7544">Backend: C#, SQL, Microsoft SQL Server, .NET, EF Core, JSON, Node, Ruby on rails</tspan></text>
<text fill="#2e3d68" xml:space="preserve" transform="matrix(.75 0 0 .75 0 36.75)" font-size="9.63" font-family="Merriweather"><tspan y="137" x="52.90625 60.182725 65.3802 70.82793 77.748279 83.75426 88.528247 91.84886 94.129978 100.37657 104.19768 108.34604 114.592639 121.86911 125.093479 127.37459 133.53456 140.13729 149.50237 155.57572 158.80008 161.08119 167.54917 170.66765 175.56676 180.76424 186.77022 189.99459 192.2757 198.5223 201.6889 207.05 211.82399 216.59798 219.71646 224.61557 226.89669 233.06629 236.18477 242.19075 247.38823 250.55484 253.67333 259.95845 265.1559 269.9299 273.15428 275.43537 279.25648 284.61756 290.86415 294.0885 296.36964 302.53926 308.2661 316.33186 321.52934 325.86058 331.52006 337.7955 342.99299 346.15959 349.3262 352.55058 354.8317 361.43443 366.73777 372.78227 377.1135 382.31098 384.59208 390.25157 394.15928 399.88615 404.21739 409.57847 415.32456 420.52204 422.80314 429.0497 434.7188 440.7248 443.8914 449.61827 453.9495 459.14698">DevOps: CI/CD, YAML, Bicep, Classic Pipelines, IaC, PowerShell, Azure Storage Explorer</tspan></text>
<text fill="#2e3d68" xml:space="preserve" transform="matrix(.75 0 0 .75 0 36.75)" font-size="9.63" font-family="Merriweather"><tspan y="151" x="52.90625 59.152849 64.821949 68.729679 73.06091 78.42201 81.74263 84.02374 91.30022 97.02707 101.92618 107.51828 112.71576 117.047 120.27136 122.552478 129.6557 132.77419 136.68192 139.90628 142.1874 148.53987 151.65836 161.12932 164.35369 166.6348 173.10277 178.46387 183.23786">Extra: Docker, Git, Vim, Bash</tspan></text>
<path transform="matrix(.75,0,0,.75,0,36.75)" d="M53 200H763V201H53Z"/>
<path transform="matrix(.75,0,0,.75,0,36.75)" d="M53 621H763V622H53Z" fill="#e5e7eb"/>
<text xml:space="preserve" transform="matrix(.75 0 0 .75 0 36.75)" font-size="13.03" font-family="Merriweather" font-weight="bold"><tspan y="193" x="52.90625 61.43141 70.789569 79.39282 87.917987 97.30217 102.65155 111.17671 121.62816 130.19237">EXPERIENCE</tspan></text>
<text fill="#2e3d50" xml:space="preserve" transform="matrix(.75 0 0 .75 0 36.75)" font-size="11.33" font-family="Merriweather" font-weight="bold"><tspan y="217" x="52.90625 59.737169 66.862628 71.48454 76.10646 85.62216 92.033939 97.36952 103.60004 106.28482 113.7048 121.41933 128.46549 132.39638 140.1109 146.34142 152.57193 157.90752 160.5923">Software Engineer I</tspan></text>
<text fill="#2e3d68" xml:space="preserve" transform="matrix(.75 0 0 .75 0 36.75)" font-size="11.33" font-family="Merriweather" font-weight="bold"><tspan y="217" x="168.25">|</tspan></text>
<text fill="#2e3d68" xml:space="preserve" transform="matrix(.75 0 0 .75 0 36.75)" font-size="11.33" font-family="Merriweather" font-weight="bold"><tspan y="217" x="176.03125 183.51921 191.76616 200.0131 207.24051 214.69448 222.94142 231.10907">POOLCORP</tspan></text>
<text fill="#2e3d68" xml:space="preserve" transform="matrix(.75 0 0 .75 0 36.75)" font-size="11.33" font-family="Merriweather" font-weight="bold"><tspan y="217" x="241.60938">|</tspan></text>
<text fill="#2e3d68" xml:space="preserve" transform="matrix(.75 0 0 .75 0 36.75)" font-size="11.33" font-family="Merriweather" font-weight="bold"><tspan y="217" x="249.39063 256.8446 263.97007 271.68458 278.15299 282.08387 289.7984 296.84455 301.46647 308.59193 316.30647 320.0901 322.77488 330.00227">Convington, LA</tspan></text>
<text fill="#2e3d68" xml:space="preserve" transform="matrix(.75 0 0 .75 0 36.75)" font-size="11.33" font-family="Merriweather" font-weight="bold"><tspan y="217" x="340.96876">|</tspan></text>
<text fill="#2e3d68" xml:space="preserve" transform="matrix(.75 0 0 .75 0 36.75)" font-size="11.33" font-family="Merriweather" font-weight="bold"><tspan y="217" x="348.75 360.2708 366.6826 372.0182 377.89753 385.48744 388.1722 395.0258 402.46846 409.32203 416.81 419.49479 426.64289 429.32768 437.94844 444.17897 450.0583 456.28883 467.7643 474.76515 480.99568 486.33125 489.01603 495.8696 503.31227 510.16584">March 2024 - December 2024</tspan></text>
<text fill="#2e3d68" xml:space="preserve" transform="matrix(.75 0 0 .75 0 36.75)" font-size="9.63" font-family="Merriweather"><tspan y="232" x="58.90625 65.15285 70.8797 74.04631 77.21292 82.57402 88.349 94.07585 98.40709 103.76819 107.67592 112.8734 118.821628 121.10274 129.16846 132.28694 136.19467 142.47014 144.75125 148.65898 154.93445 160.13193 162.41304 168.58264 174.3095 178.64073 182.54846 187.90956 191.07617 193.35729 197.26502 202.4625 207.8236 217.29456 219.57567 223.4834 229.21025 231.49137 236.68885 242.97394 249.2494 254.6105 260.8956 265.7947 270.9922 273.27333 278.6344 284.9195 290.86775 293.14888 302.6198 307.9809 311.09938 317.38447 321.29219 326.65327 329.77174 336.05683 338.33796 342.24568 348.52113 353.7186 355.9997 358.37709 366.04817 372.29475 378.83009 381.1112 386.88618 392.24726 397.14637 402.73847 407.93595 414.22105 420.16926 422.45039 427.81147 434.09657 440.0448 442.32594 448.99604 454.1935 459.55464 464.45375 468.36146 470.64259 474.44447 478.7757 484.50257 490.78767 494.69538 499.89286 506.17796 512.12619 515.3505 517.63168 522.8291 529.1142 533.8882 539.9326 544.26388 547.3823 553.6674 559.4135 561.69467 566.4686 571.6661 577.02719 586.4981 589.66476 594.86227 599.6362 604.4102 606.69137 609.8098 616.0949 620.0026 625.20016 630.9462 635.27749 640.63858 644.54629 647.66476 653.3916 659.6767 661.9578 667.3189 673.604 679.55227 681.8334 686.1646 691.8915 697.66647 703.71096 708.4849">Collaborated with the Portal team to enhance and maintain the .NET backend and React frontend, ensuring seamless integration and robust</tspan></text>
<text fill="#2e3d68" xml:space="preserve" transform="matrix(.75 0 0 .75 0 36.75)" font-size="9.63" font-family="Merriweather"><tspan y="232" x="712.40628"> </tspan></text>
<text fill="#2e3d68" xml:space="preserve" transform="matrix(.75 0 0 .75 0 36.75)" font-size="9.63" font-family="Merriweather"><tspan y="246" x="58.90625 64.91223 70.10971 74.44095 78.24281 83.969669 88.3009 97.771869 103.132968 109.41806 114.31717 119.51465 121.79576 127.15686 132.05597 136.3872 142.11406 146.88805 151.66204 153.94315 157.85088 164.12635 169.32382 171.60494 177.61092 180.77753 186.13863 190.04636 193.84822 199.57508 203.90631 213.37728">performance across the platform.</tspan></text>
<text fill="#2e3d68" xml:space="preserve" transform="matrix(.75 0 0 .75 0 36.75)" font-size="9.63" font-family="Merriweather"><tspan y="232" x="51.90625">&#x2022;</tspan></text>
<text fill="#2e3d68" xml:space="preserve" transform="matrix(.75 0 0 .75 0 36.75)" font-size="9.63" font-family="Merriweather"><tspan y="261" x="58.90625 66.182727 71.3802 76.82793 82.025409 85.19202 90.91887 96.92485 102.12233 108.07056 110.35167 115.71277 121.99786 127.94609 130.2272 136.17543 141.37291 147.37889 150.5455 156.27236 161.77783 166.97531 172.92354 175.20465 181.48012 184.5986 190.3447 196.62017 202.65502 208.47812 214.5226 219.8837 223.05031 226.1688 230.07653 235.582 237.86312 244.5332 249.73069 255.09178 259.9909 263.89863 266.17976 271.07887 276.80574 286.27668 292.28266 298.00953 304.29463 309.4921 315.7772 319.6849 324.4589 327.68327 329.9644 334.8635 340.59037 346.87547 350.78318 355.1144 358.23289 364.00785 370.05235 373.96006 377.07853 383.36363 389.1097 391.39085 395.29856 401.02543 403.30656 408.66764 410.94877 416.99327 421.76725 426.96473 431.29597 437.3308 441.13267 445.4639 448.58238 453.77986 460.06495 466.01316 469.17979 474.68528 476.9664 480.08488 486.36997 490.27769 495.47517 499.8064 503.60826 508.96934 513.8684 519.0659 521.34707 526.7081 531.60726 536.50637 541.70388 546.47787 551.25186 556.44937 562.3976 564.6787 570.4537 575.95919 578.2403 582.148 588.42349 594.1503 600.1948 604.9688 610.3299 616.615 622.56326 627.3372 629.61837 635.3452 639.1471 641.4282 646.32736 652.3718 657.1458 661.0535 666.7804 676.25137 681.44888 685.7801 690.5541">Developed and deployed high-quality React components, contributing to a user-friendly interface accessed by thousands of customers.</tspan></text>
<text fill="#2e3d68" xml:space="preserve" transform="matrix(.75 0 0 .75 0 36.75)" font-size="9.63" font-family="Merriweather"><tspan y="261" x="51.90625">&#x2022;</tspan></text>
<text fill="#2e3d68" xml:space="preserve" transform="matrix(.75 0 0 .75 0 36.75)" font-size="9.63" font-family="Merriweather"><tspan y="275" x="58.90625 65.8266 71.83258 75.74031 78.858798 88.32976 91.44824 96.75159 101.949069 107.89729 110.178409 115.953388 121.31448 126.21359 131.8057 137.00318 143.28827 149.2365 151.51761 156.2916 161.48908 165.82032 171.26804 174.38652 179.28563 184.48311 189.2571 191.53821 196.8993 203.1844 209.13263 211.41374 218.01647 224.18607 228.00717 230.28829 235.48577 241.77086 247.71909 253.72507 259.4519 262.57038 268.85548 272.76319 277.53718 280.76155 283.04267 287.3739 292.57139 297.34538 303.38984 306.55647 310.46418 313.58265 319.86775 325.61384 327.89497 331.01344 337.29853 339.57966 342.69813 352.16908 358.17506 362.5063 368.23316 373.68089 378.87837 384.8266 387.10774 393.05598 398.41706 402.32478 407.68586 409.96699 413.76887 416.9355 422.66236 430.7281 433.00923 438.3703 444.6554 450.60365 452.88478 457.216 462.41349 468.3617 474.4062 479.3053 484.50279 490.451 492.73213 497.06336 502.26084 507.03483 513.0408 518.7676 525.0527 529.82669 535.0242 537.3053 541.213 544.3315 553.8024 558.9999 563.77389 566.05496 569.8568 575.5837 579.9149 582.19607 587.09518 591.4264 594.54489 598.4526 601.57107 606.47018 611.83126 614.99789 617.279 623.285 629.01187 633.3431 637.2508 642.6119 645.7785 648.05966 651.8615 657.906 664.1911 669.0902 672.9979 676.1164 681.84329 688.12838 693.48947 696.65609 699.77456 703.68228 706.8007 711.99819 716.77218">Optimized backend services and API endpoints, resulting in improved data flow and reduced response times for critical portal functionalities.</tspan></text>
<text fill="#2e3d68" xml:space="preserve" transform="matrix(.75 0 0 .75 0 36.75)" font-size="9.63" font-family="Merriweather"><tspan y="275" x="51.90625">&#x2022;</tspan></text>
<text fill="#2e3d68" xml:space="preserve" transform="matrix(.75 0 0 .75 0 36.75)" font-size="9.63" font-family="Merriweather"><tspan y="290" x="58.90625 62.727357 72.19832 78.2043 81.37091 86.56839 96.03935 101.23683 107.52193 111.42966 116.62714 122.57536 124.856479 130.63146 135.82894 140.60292 144.51065 146.79177 152.79775 157.12899 162.49008 167.38919 171.29692 174.4154 179.31452 184.512 189.28598 191.5671 194.68558 200.97068 203.25179 207.05365 213.09813 216.26474 219.43135 221.71247 226.48645 230.39418 235.75528 240.65439 246.24649 248.5276 254.47583 259.6733 265.12104 270.3185 273.4851 279.21199 285.21797 294.6889 299.88639 306.17149 310.07923 313.3036 315.58473 318.7032 324.98829 329.8874 333.05403 339.0985 345.04676 348.16523 354.45033 360.1964 362.47755 367.37666 373.10353 379.05177 384.24925 386.53034 390.86158 396.05906 401.50679 404.62525 409.82273 417.88844 422.6624 425.88679 428.1679 433.06703 437.39826 442.59574 447.95686 451.86457 454.98304 460.7099 466.995 469.27613 475.003 478.80488 481.086 487.1305 493.4156 496.53407 500.44178 502.7229 506.6306 511.8281 516.60208 520.50979 522.7909 526.5928 532.31967 536.6509 538.932 548.40298 553.60049 557.5082 563.7836 569.5105 575.45877 580.2327 584.3811 586.66226 591.56137 597.2882 606.75918 612.76516 618.492 624.7771 629.97457 636.25967 640.16738 644.94137 647.2225 652.58358 658.86868 664.8169 667.098 673.1425 677.05026 680.1687 683.3353 686.4538 691.75717 696.95468 702.9029 705.184 711.4306 717.1575 723.44259 727.3503 730.46878 736.75387 742.79837 748.5252 754.5697">Implemented best practices in full stack development, including code reviews, creation of unit test for methods/ components and utilized Continuous</tspan></text>
<text fill="#2e3d68" xml:space="preserve" transform="matrix(.75 0 0 .75 0 36.75)" font-size="9.63" font-family="Merriweather"><tspan y="290" x="759.34378"> </tspan></text>
<text fill="#2e3d68" xml:space="preserve" transform="matrix(.75 0 0 .75 0 36.75)" font-size="9.63" font-family="Merriweather"><tspan y="304" x="58.90625 62.727357 69.01245 72.92018 78.11766 83.863758 88.19499 93.55609 97.46382 100.582309 106.30916 112.59425 114.87537 120.88135 125.212589 128.33107 134.61617 139.51528 142.63376 148.63974 151.80635 157.00383 161.77782 164.15518 166.4363 172.97164 179.2471 182.36559 187.13957 189.42069 192.5873 197.78478 203.14588 209.0941 211.37522 215.28295 221.0098 223.29091 228.48839 234.77349 239.54747 245.59195 249.92319 255.12067 257.4018 261.3095 267.58497 272.78245 275.06355 279.39479 284.59226 287.75886 290.87733 296.2384 302.01338 305.13185 308.29847 311.41694 315.32466 320.83015 323.11128 328.47236 334.75746 340.7057 342.98683 347.7608 352.6599 358.021 361.18763 366.5487 372.32368 375.44215 378.60877 381.72724 385.63496 391.14045 393.42158 399.14845 402.95033 405.23146 409.13917 415.4146 420.6121 422.8932 428.89918 434.62605 438.95729 442.865 448.22608 451.3927 453.67384 456.7923 463.0774 466.87928 471.2105 476.5716 481.34559 485.2533 489.58454 495.62904 500.52815 504.43586 510.48036 514.8116 520.00906">Integration principles. This lead to ensure the reliability and scalability of the portal infrastructure.</tspan></text>
<text fill="#2e3d68" xml:space="preserve" transform="matrix(.75 0 0 .75 0 36.75)" font-size="9.63" font-family="Merriweather"><tspan y="290" x="51.90625">&#x2022;</tspan></text>
<text fill="#2e3d50" xml:space="preserve" transform="matrix(.75 0 0 .75 0 36.75)" font-size="11.33" font-family="Merriweather" font-weight="bold"><tspan y="332" x="52.90625 59.952409 67.19115 71.04274 74.89433 80.77368 85.3956 91.80737 97.68672 104.81218 107.49696 116.11774 122.34825 128.81667 135.04718 138.89878 146.02423 153.21765 159.44817">Fullstack Developer</tspan></text>
<text fill="#2e3d68" xml:space="preserve" transform="matrix(.75 0 0 .75 0 36.75)" font-size="11.33" font-family="Merriweather" font-weight="bold"><tspan y="332" x="167.79688">|</tspan></text>
<text fill="#2e3d68" xml:space="preserve" transform="matrix(.75 0 0 .75 0 36.75)" font-size="11.33" font-family="Merriweather" font-weight="bold"><tspan y="332" x="175.57813 182.40904 186.26064 190.19153 194.12242 201.24788 207.4784 210.16318 212.84796 220.80037 227.99379 235.18721 237.872 242.86774 245.55252 252.38344 257.00538 263.41716 268.75276 273.37467 280.6134 287.80683 290.4916">Sliike  App ( Startup )</tspan></text>
<text fill="#2e3d68" xml:space="preserve" transform="matrix(.75 0 0 .75 0 36.75)" font-size="11.33" font-family="Merriweather" font-weight="bold"><tspan y="332" x="298.5">|</tspan></text>
<text fill="#2e3d68" xml:space="preserve" transform="matrix(.75 0 0 .75 0 36.75)" font-size="11.33" font-family="Merriweather" font-weight="bold"><tspan y="332" x="306.28126 314.4489 320.67945 332.15495 339.2804 343.9023 350.1328 353.91645 356.60124 365.0181">Remote, US</tspan></text>
<text fill="#2e3d68" xml:space="preserve" transform="matrix(.75 0 0 .75 0 36.75)" font-size="11.33" font-family="Merriweather" font-weight="bold"><tspan y="332" x="374.85939">|</tspan></text>
<text fill="#2e3d68" xml:space="preserve" transform="matrix(.75 0 0 .75 0 36.75)" font-size="11.33" font-family="Merriweather" font-weight="bold"><tspan y="332" x="382.64064 391.73719 398.86265 405.33106 411.56159 423.03709 430.0379 436.26844 441.604 444.2888 451.14237 458.58503 465.4386 472.29219 474.97697 482.12507 484.80986 496.33064 502.7424 508.078 513.95736 521.54727 524.23208 531.08566 538.52828 545.38186">November 2022 - March 2024</tspan></text>
<text fill="#2e3d68" xml:space="preserve" transform="matrix(.75 0 0 .75 0 36.75)" font-size="9.63" font-family="Merriweather"><tspan y="347" x="58.90625 66.182727 71.3802 76.15419 79.272678 85.01877 91.30386 96.50134 102.44957 104.73068 110.09178 116.37688 122.3251 124.60622 127.7247 137.19567 143.20165 146.36826 151.56574 161.0367 166.23418 172.51927 176.427 181.62448 187.57271 189.85382 195.21492 197.49604 201.82727 207.02475 213.06923 217.84322 223.20432 228.9793 232.1459 237.34339 239.6245 245.8711 251.59795 261.0689 267.0749 272.80177 279.08686 284.28434 290.56944 294.47718 296.7583 303.8615 307.68263 309.96376 313.13038 316.24885 322.0238 326.35505 331.71614 336.04737 341.55287 343.83399 349.87849 354.65248 357.77095 364.05604 369.80213 372.08326 378.75337 383.95085 389.31196 394.21107 398.11878 401.34315 403.62428 408.82176 415.10685 421.38233 426.7434 433.0285 437.9276 441.04609 447.33119 453.07728 455.3584 459.2661 465.54158 470.73905 473.02015 478.96839 484.16587 489.6136 494.81108 497.97767 503.70454 509.7105 519.18148 524.3789 530.664 534.5718 536.8529 542.8589 547.1901 552.917 557.8161 563.01358 567.78756 572.5615 574.84268 578.64456 584.3714 588.70266 590.98379 600.4547 606.4992 609.66586 613.57357 616.692 622.698 625.8646 631.06216 633.34329 639.34927 643.6805 649.40737 652.3718 657.56936 662.46847 666.37619 671.15017 673.4313 679.20626 684.71176 686.99288 691.3241 696.5216 702.46987 708.51437 713.41348 716.5319 722.817 728.5631 730.84426 735.74337 741.4702 747.41848">Designed and implemented a reusable Component UI library using React, enhancing the development process for multiple projects by reducing code</tspan></text>
<text fill="#2e3d68" xml:space="preserve" transform="matrix(.75 0 0 .75 0 36.75)" font-size="9.63" font-family="Merriweather"><tspan y="347" x="752.625"> </tspan></text>
<text fill="#2e3d68" xml:space="preserve" transform="matrix(.75 0 0 .75 0 36.75)" font-size="9.63" font-family="Merriweather"><tspan y="361" x="58.90625 64.85448 70.89896 76.90494 80.07155 83.19003 88.08914 93.45024 97.35797 100.476459 106.20331 112.4884 114.769519 120.130619 126.41571 132.36394 134.64505 139.84253 146.12763 150.90161 156.94609 161.27733 164.39582 170.68091 176.427 178.70812 185.81134 189.63245 191.91356 196.81267 202.53952 208.82462 213.5986 216.71709 221.49108 225.3988 230.59629 236.88138 241.78049 247.28597">duplication and ensuring UI consistency.</tspan></text>
<text fill="#2e3d68" xml:space="preserve" transform="matrix(.75 0 0 .75 0 36.75)" font-size="9.63" font-family="Merriweather"><tspan y="347" x="51.90625">&#x2022;</tspan></text>
<text fill="#2e3d68" xml:space="preserve" transform="matrix(.75 0 0 .75 0 36.75)" font-size="9.63" font-family="Merriweather"><tspan y="376" x="58.90625 65.15285 69.484088 74.845188 78.64705 82.55478 87.75226 93.700489 95.9816 101.3427 103.62381 107.95505 113.6819 119.45688 125.50136 130.27535 134.18308 136.46419 141.82529 147.86977 151.7775 158.05297 163.25045 169.53554 173.44327 176.56175 181.46086 186.82196 190.72969 193.84818 199.57503 205.86013 208.14124 212.91522 218.4207 223.19469 227.10242 232.2999 241.77086 244.05197 247.85384 253.58069 257.91194 260.19306 264.96705 270.16453 275.52565 284.99659 288.1632 293.3607 298.13468 302.90867 305.18977 311.23426 316.00825 321.20573 325.53697 327.81809 333.17918 338.07829 342.9774 348.17488 352.94886 357.72285 360.9472 363.2283 369.2728 373.1805 376.29899 379.4656 382.58409 387.88743 391.0059 397.291 403.03709 405.3182 411.5648 417.2339 423.23988 427.5711 432.7686 437.54258 442.31657 445.54093 447.82206 453.99168 459.35276 464.12675 468.90074 474.9067 480.63359 484.9648 488.87254 492.0969 494.37803 499.7391 506.0242 511.97245 514.25357 523.61868 529.34548 535.63058 541.37667 547.1035 554.38 560.84799 563.22537 565.5065 572.0418 578.31729 581.4357 586.2097 588.49087 593.26486 598.9917 602.1583 608.2028 612.11056 615.229 620.9559 627.24099 629.5221 634.7196 641.0047 645.7787 651.8232 656.1544 661.3519 666.1259 668.40707 674.6825 679.88 682.9985 688.74459 695.02 698.92776 704.12527 710.41036 715.6078 721.556 723.83718 728.61117 733.8086 738.7077 744.7522 749.08346 752.2019 756.1096">Crafted a robust authentication system for seamless user access, utilizing Express, Passport, and MongoDB. This solution ensures heightened security</tspan></text>
<text fill="#2e3d68" xml:space="preserve" transform="matrix(.75 0 0 .75 0 36.75)" font-size="9.63" font-family="Merriweather"><tspan y="376" x="761.625"> </tspan></text>
<text fill="#2e3d68" xml:space="preserve" transform="matrix(.75 0 0 .75 0 36.75)" font-size="9.63" font-family="Merriweather"><tspan y="390" x="58.90625 64.26735 70.552448 76.50067 78.781787 84.82626 89.60025 94.79773 99.12897 101.41008 106.30919 112.03604 118.32114 123.76886 128.96634 135.25144 138.36992 143.5674 149.8525 154.7516 159.94908 163.17345 165.45456 170.81566 175.71477 180.61388 186.34073 195.81169 205.28266 211.0095 216.95774 222.31884 226.22657 229.34505 235.63014 241.37624 243.65735 249.10507 254.46617 258.79743 261.9159 267.64277 273.68727 278.46125 280.74238 283.909 289.63587 295.38197 298.50044 304.78553 307.06666 316.5376 321.73509 325.64283 331.91828 337.64515 343.59339 348.36738 350.6485 355.4225 361.46699 366.3661 372.64155 374.92268 380.28376 385.05775 387.33888 392.53636 402.00733 407.3684 410.48689 413.6535 417.80189 423.80787 429.16896 433.94294 438.71693 446.78266 452.50953 456.84077 462.789 465.07014 470.4312 476.7163 482.66456 484.94569 489.71968 495.44654 500.34565 503.4641 508.8252 511.99183 514.27297 523.7439 528.9414 534.88967 538.0081 543.3692 545.6503 549.7217 555.6603 561.02139 565.9205 571.1179 576.8929 582.61978 588.3466 593.9387 597.1631 599.4442 606.5474 612.2743 618.00119 623.74728 626.9139 632.1113 635.3357 637.6168 641.4379 647.723 652.497 656.4047 661.7658 667.5119 671.84317 677.2042 686.6752 690.7465">and user convenience, accommodating various login methods such as email/password and social media (Facebook, Google, Instagram).</tspan></text>
<text fill="#2e3d68" xml:space="preserve" transform="matrix(.75 0 0 .75 0 36.75)" font-size="9.63" font-family="Merriweather"><tspan y="376" x="51.90625">&#x2022;</tspan></text>
<text fill="#2e3d68" xml:space="preserve" transform="matrix(.75 0 0 .75 0 36.75)" font-size="9.63" font-family="Merriweather"><tspan y="405" x="58.90625 65.15285 71.43794 77.18404 80.30252 86.587619 91.785099 96.982578 101.31381 106.51129 112.45952 114.74063 120.10173 122.38284 127.28195 133.0088 142.47977 148.48575 152.81699 158.01447 164.28993 169.48741 175.7725 180.5465 183.66498 189.1127 194.31018 196.5913 201.78878 207.82363 212.72274 218.44959 227.92055 237.39151 242.58899 246.92023 251.81934 257.0168 259.2979 264.0719 269.79878 272.9654 279.0099 282.9176 286.03608 291.76295 298.04804 300.32917 303.44764 309.73274 313.64045 318.83793 324.584 328.91526 334.27638 338.18409 341.30256 347.58766 353.33375 355.61488 362.28498 368.53157 374.19105 380.72639 384.52827 390.57276 393.73939 396.0205 402.62324 408.79286 412.61396 417.38795 420.6123 422.89344 429.56355 434.76103 440.12214 445.02125 448.92897 451.21009 455.01197 460.73884 465.07008 467.3512 471.2589 477.53437 482.73185 485.01295 488.81483 493.14607 498.87294 505.15803 509.06575 511.34687 516.5443 522.8294 528.7776 531.0587 536.4198 542.7049 548.65316 550.93429 558.60537 564.3322 570.28048 575.47799 577.85537 580.8198 585.5938 587.87496 591.6768 597.4037 601.7349 604.01608 607.92379 614.1992 619.39669 621.6778 627.45278 632.81387 637.71298 643.30508 648.5025 654.7876 660.73587 663.9602 666.24136 670.5726 675.7701 680.54409 686.58859 689.7552 693.6629 696.7814 703.06649 708.81259 711.0937 714.21218 720.49728 722.7784 728.13949 730.4206 735.77206 741.87429">Engineered a comprehensive e-commerce solution integrating RESTful APIs, React for the front end and Node.js for the backend, resulting in a 30%</tspan></text>
<text fill="#2e3d68" xml:space="preserve" transform="matrix(.75 0 0 .75 0 36.75)" font-size="9.63" font-family="Merriweather"><tspan y="405" x="751.7031"> </tspan></text>
<text fill="#2e3d68" xml:space="preserve" transform="matrix(.75 0 0 .75 0 36.75)" font-size="9.63" font-family="Merriweather"><tspan y="419" x="58.90625 62.024736 68.30983 73.20894 77.54018 82.737659 88.098758 92.87274 98.07022 100.35133 103.46982 109.75491 112.036029 118.080509 122.85449 128.05197 132.38321 134.66432 139.8618 146.1469 151.89299 157.25409 163.00019 168.19766 177.66863 182.8661 189.1512 193.05893 195.34004 200.70114 206.98624 212.93447 215.21558 220.57668 222.85779 228.57501 234.18636 244.00382 246.28493 250.61617 253.73465 258.50865 263.70613 265.98725 269.1057 275.3908 277.67195 281.57966 285.9109 291.27198 297.55708 302.33106 307.69215 312.59126 316.499 319.61747 325.34434 331.62944 333.91056 338.80967 344.53654 354.00749 360.01347 363.18009 368.37757 372.2853 375.40379 381.13066 387.41575 389.69688 394.0281 399.3892 403.2969 408.4944 413.26838">increase in user engagement and a 25% rise in transaction completion rates.</tspan></text>
<text fill="#2e3d68" xml:space="preserve" transform="matrix(.75 0 0 .75 0 36.75)" font-size="9.63" font-family="Merriweather"><tspan y="405" x="51.90625">&#x2022;</tspan></text>
<text fill="#2e3d50" xml:space="preserve" transform="matrix(.75 0 0 .75 0 36.75)" font-size="11.33" font-family="Merriweather" font-weight="bold"><tspan y="446" x="52.90625 60.360216 64.21181 71.337268 78.576007 85.667469 88.35225 96.97302 103.20354 109.67195 117.9189 125.11232 130.99167 133.67646 141.09644 148.81096 155.85712 159.78801 167.50254 173.73305 179.96356 185.29915 187.98394 192.63983 200.35436 204.97628 211.20679 216.54238 224.2569 230.13625 237.72615 241.65705">Cloud DevOps Engineer Internship</tspan></text>
<text fill="#2e3d68" xml:space="preserve" transform="matrix(.75 0 0 .75 0 36.75)" font-size="11.33" font-family="Merriweather" font-weight="bold"><tspan y="446" x="251.85938">|</tspan></text>
<text fill="#2e3d68" xml:space="preserve" transform="matrix(.75 0 0 .75 0 36.75)" font-size="11.33" font-family="Merriweather" font-weight="bold"><tspan y="446" x="259.64064 268.2614 274.49195 278.34355 285.469 289.3999 294.02183 298.64375">Deloitte</tspan></text>
<text fill="#2e3d68" xml:space="preserve" transform="matrix(.75 0 0 .75 0 36.75)" font-size="11.33" font-family="Merriweather" font-weight="bold"><tspan y="446" x="307.875">|</tspan></text>
<text fill="#2e3d68" xml:space="preserve" transform="matrix(.75 0 0 .75 0 36.75)" font-size="11.33" font-family="Merriweather" font-weight="bold"><tspan y="446" x="315.65626 323.72193 330.1337 341.6092 348.8026 355.2144 358.99803 361.6828 368.72895">Tampa, FL</tspan></text>
<text fill="#2e3d68" xml:space="preserve" transform="matrix(.75 0 0 .75 0 36.75)" font-size="11.33" font-family="Merriweather" font-weight="bold"><tspan y="446" x="378.96876">|</tspan></text>
<text fill="#2e3d68" xml:space="preserve" transform="matrix(.75 0 0 .75 0 36.75)" font-size="11.33" font-family="Merriweather" font-weight="bold"><tspan y="446" x="386.75 394.7024 401.94114 408.9873 416.22605 422.1054 426.72734 429.4121 436.2657 443.7083 450.5619 456.97367 459.65846 466.80656 469.49134 473.92066 480.33244 488.04695 495.28569 501.69746 507.03303 513.5241 516.20889 523.06246 530.50509 537.35867">August 2023 - January 2024</tspan></text>
<text fill="#2e3d68" xml:space="preserve" transform="matrix(.75 0 0 .75 0 36.75)" font-size="9.63" font-family="Merriweather"><tspan y="461" x="58.90625 65.07585 69.40709 75.13394 78.93581 82.05429 86.9534 90.071887 95.26936 101.55446 105.46219 107.7433 110.861789 117.14688 119.42799 126.030719 131.33406 137.37854 141.70978 146.90726 149.18837 156.46485 161.66233 167.11005 174.0304 180.03638 184.81037 188.03473 190.31584 195.67694 200.57605 204.48378 207.60227 213.04999 218.24747 221.41408 226.91956 229.20067 235.20665 240.56775 244.89899 248.80672 251.9252 256.8243 259.9428 265.9488 271.30989 275.2176 278.33607 284.62117 290.36726 292.64839 295.76686 302.05195 304.33308 310.9358 316.6819 319.80036 322.96699 328.16447 330.44557 339.9165 345.11399 349.02174 355.29719 361.02406 366.9723 372.69917 375.86579 381.59266 387.33876 392.84425 396.0686 398.34974 403.71083 409.9959 415.94416 418.22529 422.02717 427.38825 432.28736 435.40583 438.57246 441.69093 445.59864 450.95973 454.86744 457.9859 464.271 470.0171 472.29823 478.24647 483.60755 486.726 489.89265 495.39814 497.67927 502.45326 507.35237 511.6836 517.7281 527.19906 529.48019 538.9511 544.14859 549.34609 553.2538 556.37228 562.65737 568.40347 573.1774">Proficient in Azure DevOps, actively participating in Agile methodology, and facilitating daily scrum meetings.</tspan></text>
<text fill="#2e3d68" xml:space="preserve" transform="matrix(.75 0 0 .75 0 36.75)" font-size="9.63" font-family="Merriweather"><tspan y="461" x="51.90625">&#x2022;</tspan></text>
<text fill="#2e3d68" xml:space="preserve" transform="matrix(.75 0 0 .75 0 36.75)" font-size="9.63" font-family="Merriweather"><tspan y="476" x="58.90625 64.9796 70.17708 75.53818 79.869419 86.15451 89.272998 95.55809 101.304187 103.5853 108.946399 115.23149 121.17972 123.46083 126.579319 136.05028 142.05626 145.22287 150.42035 159.89131 165.08879 171.37389 175.28162 178.4001 184.6852 190.43129 192.7124 199.31513 204.61847 210.66295 214.99419 220.19167 222.47278 228.64238 231.76087 237.76685 242.96433 246.13094 249.24942 255.53452 260.732 265.50599 267.7871 271.589 277.31587 281.6471 283.92823 290.1748 295.90168 302.18678 306.09449 309.21296 315.49806 321.5425 327.26939 333.31388 338.08787 340.369 344.1901 350.4752 354.3829 359.58039 365.32649 369.6577 375.01884 378.92655 382.045 387.77189 394.05699 396.3381 401.6992 407.98429 413.93254 416.21366 422.46025 428.1871 434.4722 438.3799 441.49839 447.78349 453.82798 459.55485 465.59934 470.37333 472.65446 479.93095 485.12843 491.1344 494.301 500.02787 505.53337 515.0043 520.2018 526.4869 530.39468 532.6758 538.7203 543.49429 546.61276 552.8978 558.6439 560.92507 567.393 570.5115 575.4106 580.6081 586.6141 588.8952 594.2563 600.5414 606.4896 608.77078 614.9307 621.53347 630.8985 636.97189">Learning and implementing Azure Pipelines for Continuous Integration and Continuous Deployment using Bicep and YAML.</tspan></text>
<text fill="#2e3d68" xml:space="preserve" transform="matrix(.75 0 0 .75 0 36.75)" font-size="9.63" font-family="Merriweather"><tspan y="476" x="51.90625">&#x2022;</tspan></text>
<text fill="#2e3d68" xml:space="preserve" transform="matrix(.75 0 0 .75 0 36.75)" font-size="9.63" font-family="Merriweather"><tspan y="490" x="58.90625 64.84485 70.5717 73.73831 76.90492 82.631778 90.697498 93.81598 100.101078 105.84717 108.12828 115.23151 118.34999 122.25772 124.53883 130.47743 133.64405 139.3709 147.43662 149.71773 155.72371 160.05495 165.41605 170.31516 174.22289 177.34137 182.24048 187.43796 192.21195 194.49306 198.40079 204.12764 206.40876 215.87972 221.24082 224.3593 230.6444 234.55213 239.91323 243.03171 249.3168 251.59792 257.04566 262.24314 266.57438 271.34837 274.46687 280.19374 286.47883 288.75996 293.65907 299.38594 305.67103 309.57875 313.90998 319.63685 322.80348 325.0846 330.44569 336.73078 342.67903 344.96015 349.73414 353.64186 357.97309 363.17057 368.53169 378.00263 381.16926 384.28773 390.5728 395.7703 398.0514 402.9505 408.67738 411.844 415.01063 420.3717 426.14668 431.87355 436.20478 441.56587 445.47358 448.59205 454.3189 460.604 462.88514 470.95088 474.06935 477.97706 484.2525 487.37098 493.65608 495.9372 505.40815 511.45265 514.61929 518.527 521.64547 527.6514 530.81808 536.0155 538.29666 544.3026 548.63388 554.3607 557.3252 562.5227 567.4218 571.3296 576.1036">Following Git Flow practices to maintain version control and streamline collaboration within multiple projects.</tspan></text>
<text fill="#2e3d68" xml:space="preserve" transform="matrix(.75 0 0 .75 0 36.75)" font-size="9.63" font-family="Merriweather"><tspan y="490" x="51.90625">&#x2022;</tspan></text>
<text fill="#2e3d68" xml:space="preserve" transform="matrix(.75 0 0 .75 0 36.75)" font-size="9.63" font-family="Merriweather"><tspan y="505" x="58.90625 65.50897 71.55345 75.46118 81.188037 90.659 96.020099 99.927829 105.125308 111.07353 113.354648 119.30287 124.50035 130.50634 133.67295 139.3998 144.90528 154.37624 159.57372 165.85881 169.76654 172.9909 175.27202 180.17113 185.89798 192.18308 195.98494 199.10343 204.84952 210.894 215.22524 220.58634 224.49407 227.61255 233.3394 239.6245 242.84886 245.12998 250.49108 256.77619 262.72444 265.00556 268.91328 274.11076 278.88475 282.79249 285.91096 292.19606 297.94215 300.22328 305.95014 309.752 312.03315 316.93226 320.09886 325.8257 331.8702 337.81846 343.8533 350.1384 355.49949 359.4072 362.52568 367.9734 373.17088 375.452 380.81309 386.81907 392.82505 395.99168 399.11015 404.00926 409.37034 413.27806 416.3965 422.12339 428.40849 433.18247 435.4636 441.5081 446.28208 449.40055 455.68565 461.43174 463.71287 470.98936 476.71623 481.61534 487.20744 492.4049 496.73616 499.01725 504.37834 510.66343 516.6117 518.8928 525.765 531.80947 537.5844 542.78189 547.1131 553.3982 558.5957 562.5034 567.7009 572.475">Automated deployment, configuration, and testing of cloud-native applications using Docker and Kubernetes.</tspan></text>
<text fill="#2e3d68" xml:space="preserve" transform="matrix(.75 0 0 .75 0 36.75)" font-size="9.63" font-family="Merriweather"><tspan y="505" x="51.90625">&#x2022;</tspan></text>
<text fill="#2e3d50" xml:space="preserve" transform="matrix(.75 0 0 .75 0 36.75)" font-size="11.33" font-family="Merriweather" font-weight="bold"><tspan y="532" x="52.90625 57.335588 64.574329 72.28885 76.21974 83.3452 88.680789 91.36557 98.41173 103.747318 110.87277 118.587299 123.20921 129.43973 137.15425 144.24571 146.9305 155.55127 161.78179 168.2502 174.48072 178.3323 185.45777 192.65119 198.8817">Junior Frontend Developer</tspan></text>
<text fill="#2e3d68" xml:space="preserve" transform="matrix(.75 0 0 .75 0 36.75)" font-size="11.33" font-family="Merriweather" font-weight="bold"><tspan y="532" x="207.21875">|</tspan></text>
<text fill="#2e3d68" xml:space="preserve" transform="matrix(.75 0 0 .75 0 36.75)" font-size="11.33" font-family="Merriweather" font-weight="bold"><tspan y="532" x="215 224.45906 231.91303 239.86544 242.55022 252.00928 258.2398 264.65159 268.50318 273.1251 280.715 286.59437 293.00614 298.34175">HCA Healthcare</tspan></text>
<text fill="#2e3d68" xml:space="preserve" transform="matrix(.75 0 0 .75 0 36.75)" font-size="11.33" font-family="Merriweather" font-weight="bold"><tspan y="532" x="307.57814">|</tspan></text>
<text fill="#2e3d68" xml:space="preserve" transform="matrix(.75 0 0 .75 0 36.75)" font-size="11.33" font-family="Merriweather" font-weight="bold"><tspan y="532" x="315.35939 323.52705 329.75758 341.23307 348.35853 352.98045">Remote</tspan></text>
<text fill="#2e3d68" xml:space="preserve" transform="matrix(.75 0 0 .75 0 36.75)" font-size="11.33" font-family="Merriweather" font-weight="bold"><tspan y="532" x="362.21876">|</tspan></text>
<text fill="#2e3d68" xml:space="preserve" transform="matrix(.75 0 0 .75 0 36.75)" font-size="11.33" font-family="Merriweather" font-weight="bold"><tspan y="532" x="370 377.04615 383.27668 390.27754 395.6131 402.85185 409.2636 414.59919 421.09028 423.77507 430.62864 438.0713 444.92488 450.1132 452.79798 459.94609 462.63087 467.06019 473.47196 481.18647 488.4252 494.83699 500.17256 506.66365 509.34843 516.202 523.64468 530.4982">February 2021 - January 2022</tspan></text>
<text fill="#2e3d68" xml:space="preserve" transform="matrix(.75 0 0 .75 0 36.75)" font-size="9.63" font-family="Merriweather"><tspan y="547" x="58.90625 65.15285 70.8797 77.164798 81.072528 85.40376 88.52225 94.297229 100.341709 104.249439 109.446918 115.39514 117.676258 121.583988 127.31084 129.59195 133.49968 139.77515 144.97263 147.25374 153.20197 158.39945 163.84717 169.04465 172.21126 177.93811 183.94409 193.41506 198.61254 204.89763 208.80536 211.08647 216.44757 222.73267 228.6809 230.962 237.00649 243.01247 248.9607 254.3218 258.22953 263.427 268.201 270.48213 276.20899 280.01087 282.292 287.1911 290.35774 293.4762 298.67369 304.95878 308.86653 314.90138 318.70326 324.06437 328.96348 332.08195 338.36705 344.11314 346.39427 352.40025 357.76133 363.50743 368.7049 373.47889 375.75999 381.12107 385.02879 387.3099 395.24089 401.48747 408.09019 410.3713 416.3099 419.47654 425.2034 429.53465 432.6531 438.60136 443.96244 447.1868 449.46794 454.6654 460.9505 465.7245 471.76896 476.1002 479.21867 485.50376 491.24986 493.53099 498.89207 505.17716 507.45829 510.57676 516.8618 520.76956 526.814 529.9325 533.8402 536.9587 542.4064 547.6039 549.885 555.2461 561.5312 567.47946 569.76058 574.0918 579.28927 584.06326 590.0692 595.7961 602.0812 606.85519 609.97366 615.4213 620.61886 622.89999 628.94448 633.71847 638.91598 643.2472 645.5283 650.72579 656.39486 662.4008 667.5983 671.92959 675.04806 680.24557 686.53067 691.42977 696.62728 699.8516 702.13278 706.25228 711.8636">Contributed to the development and updates of client-facing pages at HCA Florida, ensuring an intuitive and responsive user experience, 15%</tspan></text>
<text fill="#2e3d68" xml:space="preserve" transform="matrix(.75 0 0 .75 0 36.75)" font-size="9.63" font-family="Merriweather"><tspan y="547" x="721.6875"> </tspan></text>
<text fill="#2e3d68" xml:space="preserve" transform="matrix(.75 0 0 .75 0 36.75)" font-size="9.63" font-family="Merriweather"><tspan y="562" x="58.90625 62.024736 68.30983 73.20894 77.54018 82.737659 88.098758 92.87274 98.07022 100.35133 103.46982 109.75491 112.036029 118.080509 122.85449 128.21559 133.96169 139.15917 141.44028 145.77152 150.969 156.97498 162.70183 167.03307 170.9408 176.13828 182.0865 184.36762 189.72872 193.53058 197.43831 202.63579 206.96703 209.24814 215.19637 220.39385 225.84157 231.03905 234.20566 239.93251 245.93849 255.40946 260.60694 266.89204 270.79975 273.08088 277.97999 284.25544 289.61653 295.9016 301.6477 306.84519 311.61918 313.90028 318.79939 324.52626 330.81135 336.75959 342.80409 347.7032 351.6109 356.80839 362.7566 365.03773 370.98597 377.03047 381.3617 384.48017 390.76527 396.51136 398.79249 404.14396 408.4752 414.4234 416.70454 422.52766 428.57215 433.93324 438.26448 442.17219 447.36967 451.7009 453.982 459.70887 463.51075 465.79188 471.5091 477.61134 483.32856 487.44804">increase in usage reported after development changes conducted during 3rd quarter of 2021.</tspan></text>
<text fill="#2e3d68" xml:space="preserve" transform="matrix(.75 0 0 .75 0 36.75)" font-size="9.63" font-family="Merriweather"><tspan y="547" x="51.90625">&#x2022;</tspan></text>
<text fill="#2e3d68" xml:space="preserve" transform="matrix(.75 0 0 .75 0 36.75)" font-size="9.63" font-family="Merriweather"><tspan y="576" x="58.90625 65.15285 70.8797 74.04631 77.21292 82.57402 88.349 94.07585 98.40709 103.76819 107.67592 112.8734 118.821628 121.10274 126.00185 129.16846 134.89531 139.6693 144.86678 148.03339 153.53887 155.81998 163.8857 167.00418 170.91191 177.18738 179.46849 184.24248 189.43996 195.72505 198.84354 204.57039 208.90163 211.18274 217.13097 222.32845 227.77617 232.97365 236.14026 241.86711 247.8731 253.07057 257.4018 262.17579 264.4569 268.36463 274.0915 276.37263 279.4911 288.96205 294.96803 298.13465 303.33213 312.8031 318.00056 324.28565 328.19337 330.4745 335.67198 339.47383 343.2757 348.47319 353.37229 357.28004 360.3985 365.84623 371.0437 373.32484 377.1267 381.45796 387.1848 393.4699 397.37763 403.41249 408.60997 414.89506 420.84327 423.1244 427.89839 433.62525 436.79188 442.83638 446.74409 449.86256 455.58943 461.8745 466.6485 469.87287 472.154 477.51509 483.46333 489.73878 494.93626 499.2675 502.386 508.67109 514.4172 516.6983 520.606 526.3329 528.614 534.389 539.5864 544.3604 548.2682 550.5493 556.5553 560.88656 566.2476 571.1467 575.05447 578.1729 583.072 588.26956 593.0435 595.32467 600.6857 606.9708 612.91909 615.2002 621.2062 625.5374 631.2643 634.22879 639.4263 644.3254 648.2331 650.5142 655.2882 661.2942 666.4917 671.3908 674.5093 678.31118 681.4296 686.32876 691.6898 695.59756 698.716 704.4429 710.72799 715.50198 718.7263 721.00747 725.3387 730.53616 736.4844 742.5289 747.428 752.6255">Collaborated closely with senior developers to implement effective front-end solutions, adhering to best practices and project specifications, reduced</tspan></text>
<text fill="#2e3d68" xml:space="preserve" transform="matrix(.75 0 0 .75 0 36.75)" font-size="9.63" font-family="Merriweather"><tspan y="576" x="758.5781"> </tspan></text>
<text fill="#2e3d68" xml:space="preserve" transform="matrix(.75 0 0 .75 0 36.75)" font-size="9.63" font-family="Merriweather"><tspan y="591" x="58.90625 64.6331 70.080829 75.278308 79.60954 84.97064 88.13725 91.30386 93.58498 98.484088 104.21094 110.159168 115.35664 117.63776 123.412738 128.77384 133.54782 138.7453 141.02642 146.80139 152.30687 154.58798 158.70746 164.80968 174.62714">overall code base by 10%.</tspan></text>
<text fill="#2e3d68" xml:space="preserve" transform="matrix(.75 0 0 .75 0 36.75)" font-size="9.63" font-family="Merriweather"><tspan y="576" x="51.90625">&#x2022;</tspan></text>
<text fill="#2e3d68" xml:space="preserve" transform="matrix(.75 0 0 .75 0 36.75)" font-size="9.63" font-family="Merriweather"><tspan y="605" x="58.90625 65.07585 70.43695 74.76819 78.67592 81.7944 86.69351 89.812 95.81798 101.17908 105.08681 110.28429 116.23251 118.513629 121.63211 127.917209 130.19832 134.10605 140.38152 145.579 147.8601 157.33107 162.69217 165.81066 172.09575 176.00348 181.20096 187.48606 192.84716 199.13225 204.03136 209.22884 211.50995 216.87105 223.15615 229.10437 231.38549 236.58296 242.86806 249.14353 254.50463 260.78974 265.68885 270.88633 280.3573 285.55479 291.83988 295.74763 298.02876 303.7556 307.5575 309.83863 317.90437 323.10185 328.87684 333.65083 336.7693 340.677 345.87449 348.15559 351.95747 358.00196 364.28706 369.18617 373.09388 376.21235 381.9392 388.2243 393.5854 396.752 399.87049 403.7782 409.2837 412.50807 414.78919 418.59107 424.31794 429.21705 435.26155 440.03553 443.154 449.4391 455.18519 457.4663 463.19319 469.47828 471.7594 474.87788 484.34883 490.3548 494.68605 500.4129 505.86064 508.97914 515.2642 521.0103 523.29147 529.2974 534.4949 538.8261 542.6279 548.3548 552.68606 562.157 567.51809 573.80319 578.7023 583.8997 586.18087 591.54196 597.827 603.77529 606.0564 612.1009 616.8749 622.0723 626.40359 628.6847 633.88217 640.16726 645.9133 651.2744 657.0205 662.21798 671.6889 676.8864 683.1715 687.0792">Participated in the maintenance and enhancement of website functionality, focusing on improving performance and user engagement.</tspan></text>
<text fill="#2e3d68" xml:space="preserve" transform="matrix(.75 0 0 .75 0 36.75)" font-size="9.63" font-family="Merriweather"><tspan y="605" x="51.90625">&#x2022;</tspan></text>
<path transform="matrix(.75,0,0,.75,0,36.75)" d="M53 654H763V655H53Z"/>
<path transform="matrix(.75,0,0,.75,0,36.75)" d="M53 774H763V775H53Z" fill="#e5e7eb"/>
<text xml:space="preserve" transform="matrix(.75 0 0 .75 0 36.75)" font-size="13.03" font-family="Merriweather" font-weight="bold"><tspan y="647" x="52.90625 61.509508 70.89369 80.36899 85.45805 93.983219 102.547428 111.81447">PROJECTS</tspan></text>
<text fill="#2e3d50" xml:space="preserve" transform="matrix(.75 0 0 .75 0 36.75)" font-size="11.33" font-family="Merriweather" font-weight="bold"><tspan y="671" x="52.90625 60.858659 67.17981 74.41855 79.754138 85.98465 88.66943 96.83708 103.0676 108.946949 116.0724 123.31114 128.64673 134.52608 140.75659 143.44138 151.50707 157.91884 164.965 167.64978 179.17058 185.58235 193.29688 199.70865 206.7548 212.98532 224.46082 230.69133 238.40586 243.02777 245.71256 253.66497 260.8584 268.05183 271.9034 275.8343 281.71363 288.1254 292.7473 296.67823 303.80369">Azure Resource Tag Management Application</tspan></text>
<text fill="#2e3d68" xml:space="preserve" transform="matrix(.75 0 0 .75 0 36.75)" font-size="11.33" font-family="Merriweather" font-weight="bold"><tspan y="671" x="314.53126">|</tspan></text>
<text fill="#2e3d68" xml:space="preserve" transform="matrix(.75 0 0 .75 0 36.75)" font-size="11.33" font-family="Merriweather" font-weight="bold"><tspan y="671" x="322.3125 330.9333 337.16383 341.0154 348.14088 352.07179 356.6937 361.3156">Deloitte</tspan></text>
<text fill="#2e3d68" xml:space="preserve" transform="matrix(.75 0 0 .75 0 36.75)" font-size="11.33" font-family="Merriweather" font-weight="bold"><tspan y="671" x="370.54689">|</tspan></text>
<text fill="#2e3d68" xml:space="preserve" transform="matrix(.75 0 0 .75 0 36.75)" font-size="11.33" font-family="Merriweather" font-weight="bold"><tspan y="671" x="378.32814 386.57508 392.4544 397.07633 404.20179 411.20265 417.43318 422.76875 425.45353 432.3071 439.74977 446.60334 453.0151 455.6999 462.848 465.53279 469.9621 476.37388 484.08839 491.32713 497.7389 503.07447 509.56556 512.25039 519.10397 526.5466 533.40017">October 2023 - January 2024</tspan></text>
<text fill="#2e3d68" xml:space="preserve" transform="matrix(.75 0 0 .75 0 36.75)" font-size="9.63" font-family="Merriweather"><tspan y="686" x="58.90625 65.50897 74.979938 80.70679 86.99188 92.737979 97.51196 101.41969 103.700809 109.061908 111.34302 115.25075 120.44823 125.809329 135.28029 137.5614 143.28826 147.09012 149.37123 153.1731 156.29158 161.7393 166.93679 170.2574 172.53852 178.31349 182.64473 188.00583 191.12432 197.40941 202.1834 206.09113 211.81798 216.14922 225.62018 230.81766 236.76589 239.99025 242.27136 251.74233 257.10343 263.1094 269.1154 274.31288 280.2611 282.54225 287.90333 294.18843 300.13667 302.4178 307.3169 311.64814 316.84565 322.20674 326.11445 331.31193 337.26014 339.54127 344.90235 347.18348 353.43006 360.10017 367.20338 374.47987 376.761 382.12208 388.12806 394.13404 397.30067 400.41914 405.31825 410.67933 414.58705 417.7055 423.43238 429.71748 431.9986 435.80049 441.52735 445.85859 448.1397 453.3372 457.13905 460.94093 464.0594 468.9585 472.07698 477.27445 483.55955 487.4673 489.7484 494.5224 500.24928 504.5805 508.48823 511.6067 517.8918 523.6379 525.919 531.2801 537.5652 543.5134 545.79458 555.2655 560.6266 566.9117 572.27279 578.01889 583.2164 592.6873 597.8848 604.1699 608.07766 610.35879 616.08566 619.8875 622.16867 628.77139 634.0747 640.1192 644.45046 649.6479 651.929 656.26028 661.4577 666.2317 671.95858 678.00308 682.3343 687.2334 692.43087 694.712 698.6197 703.9808 709.72689 714.50088">Amongst a team of five; brainstormed, mapped and created a CRUD application for efficient sorting and management of Azure resource tags,</tspan></text>
<text fill="#2e3d68" xml:space="preserve" transform="matrix(.75 0 0 .75 0 36.75)" font-size="9.63" font-family="Merriweather"><tspan y="686" x="717.7344"> </tspan></text>
<text fill="#2e3d68" xml:space="preserve" transform="matrix(.75 0 0 .75 0 36.75)" font-size="9.63" font-family="Merriweather"><tspan y="700" x="58.90625 64.10373 70.388828 76.66429 82.02539 88.310489 93.209598 96.32808 102.613178 108.35927 110.64038 115.53949 118.7061 124.43295 130.47743 136.42566 138.70677 143.03801 148.23549 153.00948 158.73633 164.7808 169.11205 174.01116 179.20864 181.48975 187.53423 191.44196 194.56044 197.72705 200.84554 206.14888 211.50998 215.41771 218.5362 224.26305 230.54814">enhancing cloud resource utilization.</tspan></text>
<text fill="#2e3d68" xml:space="preserve" transform="matrix(.75 0 0 .75 0 36.75)" font-size="9.63" font-family="Merriweather"><tspan y="686" x="51.90625">&#x2022;</tspan></text>
<text fill="#2e3d68" xml:space="preserve" transform="matrix(.75 0 0 .75 0 36.75)" font-size="9.63" font-family="Merriweather"><tspan y="715" x="58.90625 62.727357 72.19832 78.2043 81.37091 86.56839 96.03935 101.23683 107.52193 111.42966 116.62714 122.57536 124.856479 130.21758 136.50267 138.78379 144.14488 150.18936 154.09709 159.82395 169.2949 174.656 178.56374 183.76122 189.70944 191.99056 198.23715 202.05826 206.20662 212.45322 219.72969 222.0108 228.01679 231.13527 237.14125 242.33873 245.50534 248.62383 254.90892 260.10639 262.3875 268.432 273.206 276.32447 282.60957 288.35566 290.63679 297.2395 302.54286 308.58735 312.91859 318.11607 320.3972 327.67369 332.87117 338.31889 345.23924 351.2452 356.0192 358.30033 362.1022 367.82908 372.1603 374.44145 379.21543 384.4129 389.77403 399.24497 402.4116 407.60908 412.38307 417.15705 419.43815 424.33726 430.06413 436.01237 441.20985 443.49095 449.43919 454.63667 460.64265 463.80924 469.5361 475.0416 484.51255 489.71003 495.99513 499.90287 502.184 505.98588 510.3171 516.04397 525.5149 527.796 530.96267 536.6895 541.5886 546.9497 550.11636 552.39749 557.595 563.88009 569.32778 572.4462 576.77749 582.50436 588.7894 598.2604 603.4579 609.743 613.6507 618.4247 620.7058 624.6135 630.3404 632.6215 639.22427 644.5276 650.5721 654.9033 660.1008 663.3252 665.6063 670.3803 673.4988 679.2449 685.52999 688.64846 692.4503 695.5688 700.4679 705.829 712.1141 716.0218 719.1884">Implemented an automated CI/CD pipeline using Azure DevOps for seamless code deployment from local environments to Azure, significantly</tspan></text>
<text fill="#2e3d68" xml:space="preserve" transform="matrix(.75 0 0 .75 0 36.75)" font-size="9.63" font-family="Merriweather"><tspan y="715" x="724.7031"> </tspan></text>
<text fill="#2e3d68" xml:space="preserve" transform="matrix(.75 0 0 .75 0 36.75)" font-size="9.63" font-family="Merriweather"><tspan y="729" x="58.90625 64.6331 70.639087 74.546817 77.6653 87.13626 90.254749 95.55809 98.676578 104.96167 110.70776 112.98888 118.9371 124.13458 129.5823 134.77979 137.9464 143.67325 149.67923 159.15019 164.34767 170.63277 174.5405 176.82161 184.88733 190.61418 194.94542 200.53752 204.33939 207.506 213.23285 221.29857 226.07256">optimizing development workflows.</tspan></text>
<text fill="#2e3d68" xml:space="preserve" transform="matrix(.75 0 0 .75 0 36.75)" font-size="9.63" font-family="Merriweather"><tspan y="715" x="51.90625">&#x2022;</tspan></text>
<text fill="#2e3d68" xml:space="preserve" transform="matrix(.75 0 0 .75 0 36.75)" font-size="9.63" font-family="Merriweather"><tspan y="743" x="58.90625 65.57634 70.77382 76.22154 81.58264 91.053607 97.059589 102.257068 108.20529 110.486408 117.08913 122.39247 128.43695 132.76819 137.96567 140.24678 146.91687 152.11435 156.88834 162.61519 168.65967 172.9909 177.89002 183.0875 185.3686 191.90395 197.26505 203.01114 205.29225 214.65734 220.01844 226.30353 231.66463 237.41072 242.6082 252.07917 257.27665 263.56175 267.46949 269.7506 275.52558 281.03108 283.3122 287.64344 292.8409 298.8469 302.0135 307.37458 312.27369 315.39216 321.67726 327.42335 329.70448 333.61219 339.88764 345.0851 347.3662 350.53285 355.73033 361.4764 366.83753 371.73664 377.24214 379.52326 384.29725 389.80274 394.57673 398.48445 403.68193 413.1529 416.37727 418.6584 421.825 427.0225 432.3836 438.33186 441.45033 447.7354 453.4815 455.76264 459.67036 465.39723 467.67835 473.03944 475.32057 481.41316 487.51539 497.33283 499.61396 502.73243 512.20339 518.20938 522.5406 528.26748 533.7152 538.9127 548.38369 553.5812 559.8663 563.77407 566.0552 569.17367 575.45877 577.73989 582.0711 587.26858 592.04257 597.7694 603.8139 608.14517 613.04428 618.2417 620.5228 625.42196 628.58859 633.94967 638.72366 643.4976 646.6161 650.41799 653.53646 658.43557 663.79666 667.70437 670.8228 676.5497 682.8348 685.1159 690.477 695.3761 700.2752 706.3197 710.65097 716.012 720.91116 726.4166 729.641 731.9221 737.2832 743.5683">Revamped Azure Resource Tag Management by replacing the legacy system, leading to a 40% improvement in resource classification accuracy, and</tspan></text>
<text fill="#2e3d68" xml:space="preserve" transform="matrix(.75 0 0 .75 0 36.75)" font-size="9.63" font-family="Merriweather"><tspan y="743" x="749.53128"> </tspan></text>
<text fill="#2e3d68" xml:space="preserve" transform="matrix(.75 0 0 .75 0 36.75)" font-size="9.63" font-family="Merriweather"><tspan y="758" x="58.90625 62.024736 71.4957 77.50168 80.66829 85.86577 95.33673 100.53421 106.819309 110.727039 115.924518 121.87274 124.153858 129.51496 135.46318 140.9109 146.272 152.5571 157.4562 162.65369 168.60192 170.88303 175.65702 180.85449 186.21559 190.54683 195.44594 201.7214 204.83989 211.12499 216.87108 219.15219 224.51329 230.79839 236.74662 239.02773 242.82959 245.94808 249.11469 253.02242 258.2199 262.55116 265.66963 271.9547 277.7008 279.98194 284.88105 290.24214 296.2481 301.6092 307.38417 310.50263 313.66926 316.78776 320.69548 323.81394 329.0114 333.7854 336.0665 342.111 346.88499 350.00346 356.28855 362.03465 364.31578 366.69316 374.36424 380.6108 387.14616 389.42729 394.78837 401.07347 407.0217 409.30284 415.97294 421.1704 426.53153 431.43064 435.33836">implemented advanced searching and filtering capabilities using .NET and React.</tspan></text>
<text fill="#2e3d68" xml:space="preserve" transform="matrix(.75 0 0 .75 0 36.75)" font-size="9.63" font-family="Merriweather"><tspan y="743" x="51.90625">&#x2022;</tspan></text>
<path transform="matrix(.75,0,0,.75,0,36.75)" d="M53 807H763V808H53Z"/>
<path transform="matrix(.75,0,0,.75,0,36.75)" d="M53 868H763V869H53Z" fill="#e5e7eb"/>
<text xml:space="preserve" transform="matrix(.75 0 0 .75 0 36.75)" font-size="13.03" font-family="Merriweather" font-weight="bold"><tspan y="800" x="52.90625 61.43141 71.33621 81.00673 89.57094 98.707828 107.97487 113.32425 122.799549">EDUCATION</tspan></text>
<text fill="#2e3d50" xml:space="preserve" transform="matrix(.75 0 0 .75 0 36.75)" font-size="11.33" font-family="Merriweather" font-weight="bold"><tspan y="824" x="52.90625 60.360216 67.48567 78.96117 86.15459 93.393329 98.01524 104.24576 109.581348 112.26613 119.097049 124.976398 128.90729 135.1378 142.85233 148.73168">Computer Science</tspan></text>
<text fill="#2e3d68" xml:space="preserve" transform="matrix(.75 0 0 .75 0 36.75)" font-size="11.33" font-family="Merriweather" font-weight="bold"><tspan y="824" x="157.96875">|</tspan></text>
<text fill="#2e3d68" xml:space="preserve" transform="matrix(.75 0 0 .75 0 36.75)" font-size="11.33" font-family="Merriweather" font-weight="bold"><tspan y="824" x="165.75 177.2708 183.50131 189.38066 194.00258 200.2331 205.56868 213.2832 215.96799 224.39618 231.52164 237.99005 244.22057 249.55615 257.2707 264.39616 269.73176 275.61109 278.29588 286.71275 294.42726 298.35816 304.82658 311.05708 316.39265 322.27198 326.20289 330.8248">Western Governors University</tspan></text>
<text fill="#2e3d68" xml:space="preserve" transform="matrix(.75 0 0 .75 0 36.75)" font-size="11.33" font-family="Merriweather" font-weight="bold"><tspan y="824" x="340.32814">|</tspan></text>
<text fill="#2e3d68" xml:space="preserve" transform="matrix(.75 0 0 .75 0 36.75)" font-size="11.33" font-family="Merriweather" font-weight="bold"><tspan y="824" x="348.10939 359.6302 363.5611 371.27565 378.4011 383.7367 386.42149 390.35237 398.0669">Minor in </tspan></text>
<text fill="#2e3d68" xml:space="preserve" transform="matrix(.75 0 0 .75 0 36.75)" font-size="11.33" font-family="Merriweather" font-weight="bold"><tspan y="824" x="400.76564 407.59657 414.72203 419.34394 423.96586 433.48158 439.89335 445.22895 451.45948 454.14427 461.56425 469.27876 476.3249 480.2558 487.97035 494.20088 500.4314 505.76698 509.69789 517.4124">Software Engineering</tspan></text>
<text fill="#2e3d68" xml:space="preserve" transform="matrix(.75 0 0 .75 0 36.75)" font-size="11.33" font-family="Merriweather" font-weight="bold"><tspan y="824" x="527.46878">|</tspan></text>
<text fill="#2e3d68" xml:space="preserve" transform="matrix(.75 0 0 .75 0 36.75)" font-size="11.33" font-family="Merriweather" font-weight="bold"><tspan y="824" x="535.25 546.7708 550.7017 554.55337 558.4049 564.28427 569.6198 575.85037 582.0809 589.2063 592.9899 595.6747 604.09158 608.7135 615.12527">Millcreek, Utah</tspan></text>
<text fill="#2e3d68" xml:space="preserve" transform="matrix(.75 0 0 .75 0 36.75)" font-size="11.33" font-family="Merriweather" font-weight="bold"><tspan y="824" x="625.71878">|</tspan></text>
<text fill="#2e3d68" xml:space="preserve" transform="matrix(.75 0 0 .75 0 36.75)" font-size="11.33" font-family="Merriweather" font-weight="bold"><tspan y="824" x="633.5 640.3536 647.7962 654.6498">2025</tspan></text>
<text fill="#2e3d68" xml:space="preserve" transform="matrix(.75 0 0 .75 0 36.75)" font-size="11.33" font-family="Merriweather" font-weight="bold"><tspan y="824" x="664.59378">|</tspan></text>
<text fill="#2e3d68" xml:space="preserve" transform="matrix(.75 0 0 .75 0 36.75)" font-size="11.33" font-family="Merriweather" font-weight="bold"><tspan y="824" x="672.375 678.78677 682.1059">3.3</tspan></text>
<text fill="#2e3d50" xml:space="preserve" transform="matrix(.75 0 0 .75 0 36.75)" font-size="11.33" font-family="Merriweather" font-weight="bold"><tspan y="852" x="52.90625 59.952409 65.287998 72.41345 80.127979 84.74989 90.98041 98.69493 105.78639 108.471179 117.09195 123.322467 129.79088 136.0214 139.87299 146.99845 154.19187 165.66736 171.89788 179.6124 184.23432 186.9191 194.90549 202.03095 209.1564 213.77832 219.65767 226.06945 237.54494">Frontend Development Bootcamp</tspan></text>
<text fill="#2e3d68" xml:space="preserve" transform="matrix(.75 0 0 .75 0 36.75)" font-size="11.33" font-family="Merriweather" font-weight="bold"><tspan y="852" x="247.75">|</tspan></text>
<text fill="#2e3d68" xml:space="preserve" transform="matrix(.75 0 0 .75 0 36.75)" font-size="11.33" font-family="Merriweather" font-weight="bold"><tspan y="852" x="255.53125 262.9059 269.1364 275.5482 280.8838 283.56858 291.98545">Year Up</tspan></text>
<text fill="#2e3d68" xml:space="preserve" transform="matrix(.75 0 0 .75 0 36.75)" font-size="11.33" font-family="Merriweather" font-weight="bold"><tspan y="852" x="302.1875">|</tspan></text>
<text fill="#2e3d68" xml:space="preserve" transform="matrix(.75 0 0 .75 0 36.75)" font-size="11.33" font-family="Merriweather" font-weight="bold"><tspan y="852" x="309.96876 318.1364 324.36695 335.84245 342.9679 347.5898 353.8203 357.60395 360.28874 368.7056">Remote, US</tspan></text>
<text fill="#2e3d68" xml:space="preserve" transform="matrix(.75 0 0 .75 0 36.75)" font-size="11.33" font-family="Merriweather" font-weight="bold"><tspan y="852" x="378.54689">|</tspan></text>
<text fill="#2e3d68" xml:space="preserve" transform="matrix(.75 0 0 .75 0 36.75)" font-size="11.33" font-family="Merriweather" font-weight="bold"><tspan y="852" x="386.32814 393.1817 400.62434 407.4779">2023</tspan></text>
<path transform="matrix(.75,0,0,.75,0,36.75)" d="M53 901H763V902H53Z"/>
<path transform="matrix(.75,0,0,.75,0,36.75)" d="M53 934H763V935H53Z" fill="#e5e7eb"/>
<text xml:space="preserve" transform="matrix(.75 0 0 .75 0 36.75)" font-size="13.03" font-family="Merriweather" font-weight="bold"><tspan y="894" x="52.90625 61.47046 69.99562 79.37981 88.64685 93.99623 102.09187 107.44125 116.00546 125.14235 134.4094 139.75878 149.23407 159.68552">CERTIFICATIONS</tspan></text>
<text fill="#2e3d50" xml:space="preserve" transform="matrix(.75 0 0 .75 0 36.75)" font-size="11.33" font-family="Merriweather" font-weight="bold"><tspan y="918" x="52.90625 64.42705 68.35794 74.23729 79.572879 86.69833 92.57768 99.70314 104.32506 108.946979 111.63176 119.58417 125.90532 133.14406 138.47965 144.71016 147.39495 154.4411 161.67984 169.39437 176.48583 182.8976 194.3731 200.6036 208.31813 212.94005 219.35182 223.20342 229.08277 231.76755 236.76329 244.7157 252.13568 259.28379 266.77174 274.21437 281.65699">Microsoft Azure Fundamentals (AZ-900)</tspan></text>
<text fill="#2e3d68" xml:space="preserve" transform="matrix(.75 0 0 .75 0 36.75)" font-size="11.33" font-family="Merriweather" font-weight="bold"><tspan y="918" x="289.65626">|</tspan></text>
<text fill="#2e3d68" xml:space="preserve" transform="matrix(.75 0 0 .75 0 36.75)" font-size="11.33" font-family="Merriweather" font-weight="bold"><tspan y="918" x="297.4375 308.9583 312.88923 318.76856 324.10414 331.22959 337.10896 344.2344 348.85633">Microsoft</tspan></text>
<text fill="#2e3d68" xml:space="preserve" transform="matrix(.75 0 0 .75 0 36.75)" font-size="11.33" font-family="Merriweather" font-weight="bold"><tspan y="918" x="356.48439">|</tspan></text>
<text fill="#2e3d68" xml:space="preserve" transform="matrix(.75 0 0 .75 0 36.75)" font-size="11.33" font-family="Merriweather" font-weight="bold"><tspan y="918" x="364.26564 371.1192 378.56184 385.4154">2023</tspan></text>
</g>
<g clip-path="url(#clip_11)">
<text xml:space="preserve" transform="matrix(.75 0 0 .75 0 0)" font-size="1" font-family="NimbusSans"><tspan y="21" x="0">.</tspan></text>
<text xml:space="preserve" transform="matrix(.75 0 0 .75 0 0)" font-size="1" font-family="NimbusSans"><tspan y="1036" x="0">.</tspan></text>
</g>
</svg>
